# xmcd CD database file
#
# Track frame offsets:
#	150
#	17755
#	32456
#	33089
#	48762
#	66672
#	81637
#	99789
#	122967
#	149040
#	150399
#	177767
#	195067
#	218917
#	253957
#	280372
#	300909
#	301972
#
# Disc length: 4316 seconds
#
# Revision: 0
# Processed by: cddbd v1.5.2PL0 Copyright (c) Steve Scherf et al.
# Submitted via: CDex 1.70beta3
#
DISCID=f110da12
DTITLE=Various Artist - Routine Jazz #12 Selected by Kei Kobayashi
DYEAR=2010
DGENRE=Jazz
TTITLE0=The Stance Brothers - Roll Call
TTITLE1=Train Up feat. Francesca Sortino - What Is Wrong With Groovin
TTITLE2=Routine Jazz Interlude 1
TTITLE3=Nicola Conte - Groovy Samba
TTITLE4=Idea6 feat. Francesca Sortino - Bell's (I'll Be Waiting)
TTITLE5=Lorenzo Tucci - Wives and Lovers
TTITLE6=Hara Dairiki Quintet - Do The Wrong Thing
TTITLE7=Build An Ark - Dawn (Ras G and The Afrikan Space Program Remix)
TTITLE8=Quartetto Trevi feat. Max Ionata - Night Walk
TTITLE9=Routine Jazz Interlude 2
TTITLE10=STARDISH - Mambo Souce
TTITLE11=Colman Brothers - Sem Amor (Big Band Version)
TTITLE12=Snowboy and The Latin Section - Mi China
TTITLE13=Raphael Sebbag - Alegria Africana
TTITLE14=Benny Bailey - Effluves
TTITLE15=Train Up feat. Alan Farrington - In The Name Of Love
TTITLE16=Routine Jazz Interlude 3
TTITLE17=Primo and The Groupe - On Green Dolphin Street
EXTD=YEAR: 2010
EXTT0=
EXTT1=
EXTT2=
EXTT3=
EXTT4=
EXTT5=
EXTT6=
EXTT7=
EXTT8=
EXTT9=
EXTT10=
EXTT11=
EXTT12=
EXTT13=
EXTT14=
EXTT15=
EXTT16=
EXTT17=
PLAYORDER=
